<svg xmlns="http://www.w3.org/2000/svg" viewBox="0 0 512 512">
  <rect width="512" height="512" rx="64" fill="#6366f1"/>
  <g transform="translate(56,56)" stroke="#fff" stroke-width="6" fill="none">
    <!-- Outer border -->
    <rect x="0" y="0" width="400" height="400" rx="12" stroke-width="10"/>
    <!-- 3x3 box borders -->
    <line x1="133.3" y1="0" x2="133.3" y2="400" stroke-width="8"/>
    <line x1="266.6" y1="0" x2="266.6" y2="400" stroke-width="8"/>
    <line x1="0" y1="133.3" x2="400" y2="133.3" stroke-width="8"/>
    <line x1="0" y1="266.6" x2="400" y2="266.6" stroke-width="8"/>
    <!-- Thin cell lines -->
    <line x1="44.4" y1="0" x2="44.4" y2="400" opacity="0.4"/>
    <line x1="88.8" y1="0" x2="88.8" y2="400" opacity="0.4"/>
    <line x1="177.7" y1="0" x2="177.7" y2="400" opacity="0.4"/>
    <line x1="222.1" y1="0" x2="222.1" y2="400" opacity="0.4"/>
    <line x1="311" y1="0" x2="311" y2="400" opacity="0.4"/>
    <line x1="355.4" y1="0" x2="355.4" y2="400" opacity="0.4"/>
    <line x1="0" y1="44.4" x2="400" y2="44.4" opacity="0.4"/>
    <line x1="0" y1="88.8" x2="400" y2="88.8" opacity="0.4"/>
    <line x1="0" y1="177.7" x2="400" y2="177.7" opacity="0.4"/>
    <line x1="0" y1="222.1" x2="400" y2="222.1" opacity="0.4"/>
    <line x1="0" y1="311" x2="400" y2="311" opacity="0.4"/>
    <line x1="0" y1="355.4" x2="400" y2="355.4" opacity="0.4"/>
  </g>
  <!-- Sample digits -->
  <g fill="#fff" font-family="system-ui,sans-serif" font-weight="700" font-size="38" text-anchor="middle" dominant-baseline="central">
    <text x="122" y="122">5</text>
    <text x="300" y="78">8</text>
    <text x="212" y="212" font-size="44" fill="#c7d2fe">∞</text>
    <text x="78" y="345">3</text>
    <text x="345" y="300">7</text>
    <text x="390" y="434">1</text>
  </g>
</svg>
